<svg width="243" height="74" viewBox="0 0 243 74" fill="none" xmlns="http://www.w3.org/2000/svg">
<path d="M0 32.1V24.45C1.1 23.95 2.05 23.3 2.85 22.5C3.65 21.6667 4.33333 20.6667 4.9 19.5C5.46667 18.3 5.91667 16.9167 6.25 15.35C6.58333 13.75 6.81667 11.9333 6.95 9.9L7.75 0.5H23.7V24.4H27.5L27.1356 32.1H21.5856L21.4 29.4H6L5.55 32.1H0ZM8.8 24.4H16.25V5.35H13.8L13.2 11.85C13.1 13.6833 12.9167 15.2833 12.65 16.65C12.4167 17.9833 12.1 19.15 11.7 20.15C11.3333 21.1167 10.9 21.95 10.4 22.65C9.9 23.3167 9.36667 23.9 8.8 24.4Z" fill="white"/>
<path d="M29.4129 29.7V23.95C30.4796 23.95 31.3462 23.7833 32.0129 23.45C32.7129 23.1167 33.2629 22.55 33.6629 21.75C34.0962 20.9167 34.4296 19.8 34.6629 18.4C34.8962 16.9667 35.0962 15.15 35.2629 12.95L36.2129 0.5H54.5629V29.4H46.4129V6H43.1129L42.4129 14.55C42.1796 17.55 41.8462 20.0333 41.4129 22C40.9796 23.9667 40.3462 25.5167 39.5129 26.65C38.6796 27.75 37.5629 28.5333 36.1629 29C34.7629 29.4667 32.9796 29.7 30.8129 29.7H29.4129Z" fill="white"/>
<path d="M57.982 29.4L62.482 17.4C61.7154 16.9667 61.0654 16.3667 60.532 15.6C59.9987 14.8333 59.5987 13.9333 59.332 12.9C59.0654 11.8667 58.932 10.75 58.932 9.55C58.932 8.21667 59.1154 7 59.482 5.9C59.882 4.8 60.4987 3.85 61.332 3.05C62.1987 2.25 63.3154 1.63333 64.682 1.2C66.0487 0.733333 67.6987 0.5 69.632 0.5H80.382V29.4H72.282V19.1C72.1487 19.1 71.782 19.1 71.182 19.1C70.582 19.0667 70.132 19.0333 69.832 19L66.582 29.4H57.982ZM71.932 14.3C71.9987 14.3 72.0654 14.3 72.132 14.3C72.1987 14.3 72.2487 14.3 72.282 14.3V5.1C72.2487 5.1 72.1987 5.1 72.132 5.1C72.0654 5.1 71.9987 5.1 71.932 5.1C70.6987 5.1 69.6654 5.26667 68.832 5.6C67.9987 5.93333 67.3654 6.43333 66.932 7.1C66.532 7.73333 66.332 8.53333 66.332 9.5C66.332 11.1333 66.8154 12.3333 67.782 13.1C68.782 13.8667 70.1654 14.2667 71.932 14.3Z" fill="white"/>
<path d="M98.2562 29.4V0.5H108.506C111.406 0.5 113.59 0.816666 115.056 1.45C116.523 2.05 117.506 2.88333 118.006 3.95C118.506 5.01667 118.756 6.26667 118.756 7.7C118.756 9.6 118.34 11 117.506 11.9C116.706 12.7667 115.64 13.3833 114.306 13.75C115.706 14.0833 116.773 14.5833 117.506 15.25C118.24 15.9167 118.74 16.7333 119.006 17.7C119.306 18.6667 119.456 19.7833 119.456 21.05C119.456 22.9167 119.106 24.4833 118.406 25.75C117.706 26.9833 116.523 27.9 114.856 28.5C113.19 29.1 110.923 29.4 108.056 29.4H98.2562ZM106.356 24.9H107.706C108.44 24.9 109.09 24.8333 109.656 24.7C110.223 24.5667 110.673 24.2167 111.006 23.65C111.373 23.05 111.556 22.1 111.556 20.8C111.556 19.3333 111.39 18.2833 111.056 17.65C110.756 17.0167 110.323 16.6333 109.756 16.5C109.19 16.3667 108.523 16.3 107.756 16.3H106.356V24.9ZM106.356 11.9H108.406C109.373 11.9 110.04 11.6 110.406 11C110.773 10.3667 110.956 9.5 110.956 8.4C110.956 7.33333 110.756 6.45 110.356 5.75C109.99 5.05 109.14 4.7 107.806 4.7H106.356V11.9Z" fill="white"/>
<path d="M128.553 29.9C127.086 29.9 125.853 29.55 124.853 28.85C123.853 28.15 123.103 27.2667 122.603 26.2C122.103 25.1 121.853 23.9833 121.853 22.85C121.853 21.05 122.203 19.5333 122.903 18.3C123.636 17.0667 124.586 16.0333 125.753 15.2C126.919 14.3667 128.203 13.6667 129.603 13.1C131.003 12.5 132.386 11.9667 133.753 11.5V8.6C133.753 8.1 133.703 7.66667 133.603 7.3C133.503 6.9 133.336 6.6 133.103 6.4C132.869 6.16667 132.519 6.05 132.053 6.05C131.586 6.05 131.219 6.15 130.953 6.35C130.719 6.55 130.553 6.83333 130.453 7.2C130.353 7.53333 130.286 7.91667 130.253 8.35L130.053 10.45L122.453 10.15C122.619 6.68333 123.536 4.13333 125.203 2.5C126.903 0.833333 129.436 0 132.803 0C135.736 0 137.919 0.816666 139.353 2.45C140.819 4.05 141.553 6.13333 141.553 8.7V22.2C141.553 23.4 141.569 24.45 141.603 25.35C141.669 26.25 141.736 27.0333 141.803 27.7C141.903 28.3667 141.986 28.9333 142.053 29.4H134.753C134.653 28.6333 134.536 27.8 134.403 26.9C134.269 26 134.169 25.4667 134.103 25.3C133.769 26.5 133.136 27.5667 132.203 28.5C131.303 29.4333 130.086 29.9 128.553 29.9ZM131.453 24.4C131.786 24.4 132.086 24.3333 132.353 24.2C132.653 24.0667 132.919 23.8833 133.153 23.65C133.386 23.4167 133.586 23.1833 133.753 22.95V15.05C133.086 15.45 132.469 15.8667 131.903 16.3C131.336 16.7 130.853 17.15 130.453 17.65C130.053 18.15 129.736 18.7 129.503 19.3C129.303 19.8667 129.203 20.5167 129.203 21.25C129.203 22.2167 129.403 22.9833 129.803 23.55C130.203 24.1167 130.753 24.4 131.453 24.4Z" fill="white"/>
<path d="M146.351 29.4V0.5H153.951V23.9H157.801V0.5H165.401V23.9H169.251V0.5H176.851V29.4H146.351Z" fill="white"/>
<path d="M191.446 29.9C189.346 29.9 187.546 29.5333 186.046 28.8C184.546 28.0333 183.396 26.9333 182.596 25.5C181.796 24.0333 181.396 22.2833 181.396 20.25V9.65C181.396 7.58333 181.796 5.83333 182.596 4.4C183.396 2.96667 184.546 1.88333 186.046 1.15C187.58 0.383333 189.38 0 191.446 0C193.58 0 195.346 0.366666 196.746 1.1C198.18 1.83333 199.246 2.91666 199.946 4.35C200.68 5.78333 201.046 7.55 201.046 9.65V15.45H189.446V21C189.446 21.7333 189.53 22.3333 189.696 22.8C189.863 23.2667 190.096 23.6 190.396 23.8C190.696 24 191.046 24.1 191.446 24.1C191.846 24.1 192.196 24.0167 192.496 23.85C192.83 23.65 193.08 23.35 193.246 22.95C193.446 22.55 193.546 22 193.546 21.3V18.25H201.046V21.05C201.046 23.9833 200.196 26.2 198.496 27.7C196.796 29.1667 194.446 29.9 191.446 29.9ZM189.446 11.65H193.546V8.75C193.546 7.98333 193.446 7.38333 193.246 6.95C193.08 6.51667 192.83 6.21667 192.496 6.05C192.196 5.88333 191.83 5.8 191.396 5.8C190.996 5.8 190.646 5.9 190.346 6.1C190.08 6.3 189.863 6.65 189.696 7.15C189.53 7.61667 189.446 8.3 189.446 9.2V11.65Z" fill="white"/>
<path d="M205.483 29.4V0.5H219.883V6H213.633V29.4H205.483Z" fill="white"/>
<path d="M232.561 29.9C230.494 29.9 228.694 29.55 227.161 28.85C225.661 28.15 224.494 27.1 223.661 25.7C222.861 24.3 222.461 22.55 222.461 20.45V9.45C222.461 7.35 222.861 5.6 223.661 4.2C224.494 2.8 225.661 1.75 227.161 1.05C228.694 0.349999 230.494 0 232.561 0C234.628 0 236.411 0.349999 237.911 1.05C239.444 1.75 240.628 2.8 241.461 4.2C242.294 5.6 242.711 7.35 242.711 9.45V20.45C242.711 22.55 242.294 24.3 241.461 25.7C240.628 27.1 239.444 28.15 237.911 28.85C236.411 29.55 234.628 29.9 232.561 29.9ZM232.611 24.5C233.144 24.5 233.561 24.3667 233.861 24.1C234.161 23.8 234.361 23.4 234.461 22.9C234.594 22.3667 234.661 21.7333 234.661 21V8.9C234.661 8.16667 234.594 7.55 234.461 7.05C234.361 6.51667 234.161 6.11667 233.861 5.85C233.561 5.55 233.144 5.4 232.611 5.4C232.078 5.4 231.661 5.55 231.361 5.85C231.061 6.11667 230.844 6.51667 230.711 7.05C230.578 7.55 230.511 8.16667 230.511 8.9V21C230.511 21.7333 230.578 22.3667 230.711 22.9C230.844 23.4 231.061 23.8 231.361 24.1C231.661 24.3667 232.078 24.5 232.611 24.5Z" fill="white"/>
<path d="M10.05 73.9C7.38333 73.8333 5.33333 73.35 3.9 72.45C2.5 71.55 1.55 70.25 1.05 68.55C0.55 66.8167 0.3 64.75 0.3 62.35V46.2C0.3 43.5333 0.566667 41.4 1.1 39.8C1.66667 38.2 2.43333 36.9667 3.4 36.1C4.4 35.2333 5.55 34.5667 6.85 34.1C8.15 33.6333 9.45 33.2667 10.75 33C12.0833 32.7333 13.3667 32.4333 14.6 32.1C15.8667 31.7333 17.3333 31.5999 18.4 30.8999V37.05C17.3 37.6167 16.1333 38.0333 14.9 38.3C13.7 38.5333 12.5167 38.75 11.35 38.95C10.2167 39.1167 9.16667 39.4 8.2 39.8C7.33333 40.1333 6.71667 40.7667 6.35 41.7C5.98333 42.6 5.8 43.85 5.8 45.45V47.65C6.23333 47.15 6.76667 46.7333 7.4 46.4C8.06667 46.0667 8.83333 45.8167 9.7 45.65C10.6 45.4833 11.5833 45.4 12.65 45.4C14.4167 45.4 15.85 45.7333 16.95 46.4C18.05 47.0667 18.85 48.1667 19.35 49.7C19.8833 51.2333 20.15 53.3167 20.15 55.95V63C20.15 65.9667 19.7167 68.25 18.85 69.85C18.0167 71.4167 16.8333 72.4833 15.3 73.05C13.8 73.6167 12.05 73.9 10.05 73.9ZM10.4 68.65C11.0333 68.65 11.4833 68.4833 11.75 68.15C12.05 67.8167 12.25 67.2 12.35 66.3C12.45 65.3667 12.5 64 12.5 62.2V54.5C12.5 53.4 12.45 52.5333 12.35 51.9C12.25 51.2333 12.05 50.7667 11.75 50.5C11.45 50.2333 11.0167 50.1 10.45 50.1C10.0833 50.1 9.73333 50.2167 9.4 50.45C9.1 50.65 8.85 51 8.65 51.5C8.45 51.9667 8.28333 52.6333 8.15 53.5V62.15C8.15 63.9167 8.2 65.2667 8.3 66.2C8.4 67.1333 8.61667 67.7833 8.95 68.15C9.28333 68.4833 9.76667 68.65 10.4 68.65Z" fill="white"/>
<path d="M24.7699 73.4V44.5H31.2199V59.95L38.7699 44.5H45.1199V73.4H38.5199V58.1L31.1699 73.4H24.7699Z" fill="white"/>
<path d="M58.7605 73.95C56.7605 73.95 55.1439 73.6833 53.9105 73.15C52.7105 72.5833 51.7772 71.8333 51.1105 70.9C50.4772 69.9333 50.0439 68.85 49.8105 67.65C49.6105 66.4167 49.5105 65.1333 49.5105 63.8H55.9605C55.9605 65.3333 56.1939 66.4833 56.6605 67.25C57.1605 67.9833 57.9272 68.35 58.9605 68.35C59.7272 68.35 60.3105 68.1833 60.7105 67.85C61.1105 67.5167 61.3772 67.05 61.5105 66.45C61.6772 65.85 61.7605 65.1833 61.7605 64.45C61.7605 63.4833 61.5772 62.7167 61.2105 62.15C60.8772 61.5833 60.3105 61.1833 59.5105 60.95C58.7439 60.6833 57.6939 60.55 56.3605 60.55V56.35C58.3605 56.35 59.6605 56.0833 60.2605 55.55C60.8939 55.0167 61.2105 54.0833 61.2105 52.75C61.2105 51.7833 61.0105 51.0167 60.6105 50.45C60.2439 49.8833 59.5772 49.6 58.6105 49.6C57.5772 49.6 56.8439 49.9 56.4105 50.5C56.0105 51.0667 55.8105 52.0833 55.8105 53.55H49.4105C49.4105 51.8167 49.6772 50.2333 50.2105 48.8C50.7439 47.3333 51.6939 46.1667 53.0605 45.3C54.4605 44.4333 56.4439 44 59.0105 44C61.2772 44 63.1105 44.3667 64.5106 45.1C65.9439 45.8 66.9772 46.7667 67.6105 48C68.2772 49.2 68.6105 50.5667 68.6105 52.1C68.6105 53.3667 68.4106 54.4333 68.0106 55.3C67.6105 56.1667 67.0939 56.85 66.4605 57.35C65.8272 57.8167 65.1272 58.1667 64.3605 58.4C65.1939 58.7 65.9272 59.1 66.5605 59.6C67.2272 60.1 67.7605 60.8167 68.1605 61.75C68.5605 62.65 68.7605 63.8833 68.7605 65.45C68.7605 67.8833 67.9772 69.9167 66.4105 71.55C64.8439 73.15 62.2939 73.95 58.7605 73.95Z" fill="white"/>
<path d="M72.6703 73.4V44.5H80.8203V55.7H85.6703V44.5H93.8203V73.4H85.6703V61.3H80.8203V73.4H72.6703Z" fill="white"/>
<path d="M108.39 73.9C106.29 73.9 104.49 73.5333 102.99 72.8C101.49 72.0333 100.34 70.9333 99.5398 69.5C98.7398 68.0333 98.3398 66.2833 98.3398 64.25V53.65C98.3398 51.5833 98.7398 49.8333 99.5398 48.4C100.34 46.9667 101.49 45.8833 102.99 45.15C104.523 44.3833 106.323 44 108.39 44C110.523 44 112.29 44.3667 113.69 45.1C115.123 45.8333 116.19 46.9167 116.89 48.35C117.623 49.7833 117.99 51.55 117.99 53.65V59.45H106.39V65C106.39 65.7333 106.473 66.3333 106.64 66.8C106.807 67.2667 107.04 67.6 107.34 67.8C107.64 68 107.99 68.1 108.39 68.1C108.79 68.1 109.14 68.0167 109.44 67.85C109.773 67.65 110.023 67.35 110.19 66.95C110.39 66.55 110.49 66 110.49 65.3V62.25H117.99V65.05C117.99 67.9833 117.14 70.2 115.44 71.7C113.74 73.1667 111.39 73.9 108.39 73.9ZM106.39 55.65H110.49V52.75C110.49 51.9833 110.39 51.3833 110.19 50.95C110.023 50.5167 109.773 50.2167 109.44 50.05C109.14 49.8833 108.773 49.8 108.34 49.8C107.94 49.8 107.59 49.9 107.29 50.1C107.023 50.3 106.807 50.65 106.64 51.15C106.473 51.6167 106.39 52.3 106.39 53.2V55.65Z" fill="white"/>
<path d="M131.826 73.9C129.726 73.9 127.926 73.5167 126.426 72.75C124.96 71.9833 123.826 70.8833 123.026 69.45C122.226 68.0167 121.826 66.2833 121.826 64.25V53.65C121.826 51.5833 122.226 49.8333 123.026 48.4C123.826 46.9667 124.96 45.8833 126.426 45.15C127.926 44.3833 129.726 44 131.826 44C133.893 44 135.643 44.3167 137.076 44.95C138.543 45.5833 139.66 46.55 140.426 47.85C141.193 49.1167 141.576 50.7333 141.576 52.7V55.75H133.726V52.45C133.726 51.6833 133.643 51.1 133.476 50.7C133.343 50.2667 133.126 49.9667 132.826 49.8C132.56 49.6333 132.226 49.55 131.826 49.55C131.426 49.55 131.093 49.6667 130.826 49.9C130.56 50.1 130.359 50.45 130.226 50.95C130.093 51.4167 130.026 52.0833 130.026 52.95V64.95C130.026 66.25 130.176 67.1333 130.476 67.6C130.809 68.0667 131.276 68.3 131.876 68.3C132.31 68.3 132.66 68.2167 132.926 68.05C133.193 67.85 133.393 67.55 133.526 67.15C133.66 66.7167 133.726 66.15 133.726 65.45V61.6H141.576V65.1C141.576 67.0333 141.176 68.6667 140.376 70C139.61 71.3 138.493 72.2833 137.026 72.95C135.593 73.5833 133.86 73.9 131.826 73.9Z" fill="white"/>
<path d="M150.965 73.9C149.498 73.9 148.265 73.55 147.265 72.85C146.265 72.15 145.515 71.2667 145.015 70.2C144.515 69.1 144.265 67.9833 144.265 66.85C144.265 65.05 144.615 63.5333 145.315 62.3C146.048 61.0667 146.998 60.0333 148.165 59.2C149.332 58.3667 150.615 57.6667 152.015 57.1C153.415 56.5 154.798 55.9667 156.165 55.5V52.6C156.165 52.1 156.115 51.6667 156.015 51.3C155.915 50.9 155.748 50.6 155.515 50.4C155.282 50.1667 154.932 50.05 154.465 50.05C153.998 50.05 153.632 50.15 153.365 50.35C153.132 50.55 152.965 50.8333 152.865 51.2C152.765 51.5333 152.698 51.9167 152.665 52.35L152.465 54.45L144.865 54.15C145.032 50.6833 145.948 48.1333 147.615 46.5C149.315 44.8333 151.848 44 155.215 44C158.148 44 160.332 44.8167 161.765 46.45C163.232 48.05 163.965 50.1333 163.965 52.7V66.2C163.965 67.4 163.982 68.45 164.015 69.35C164.082 70.25 164.148 71.0333 164.215 71.7C164.315 72.3667 164.398 72.9333 164.465 73.4H157.165C157.065 72.6333 156.948 71.8 156.815 70.9C156.682 70 156.582 69.4667 156.515 69.3C156.182 70.5 155.548 71.5667 154.615 72.5C153.715 73.4333 152.498 73.9 150.965 73.9ZM153.865 68.4C154.198 68.4 154.498 68.3333 154.765 68.2C155.065 68.0667 155.332 67.8833 155.565 67.65C155.798 67.4167 155.998 67.1833 156.165 66.95V59.05C155.498 59.45 154.882 59.8667 154.315 60.3C153.748 60.7 153.265 61.15 152.865 61.65C152.465 62.15 152.148 62.7 151.915 63.3C151.715 63.8667 151.615 64.5167 151.615 65.25C151.615 66.2167 151.815 66.9833 152.215 67.55C152.615 68.1167 153.165 68.4 153.865 68.4Z" fill="white"/>
</svg>
