<svg width="41" height="33" viewBox="0 0 41 33" fill="none" xmlns="http://www.w3.org/2000/svg">
<path d="M12.8802 4.98111L21.9314 28.2111L8.42744 28.3125C6.9087 28.3239 5.66827 27.102 5.65686 25.5833L5.62127 20.8437C5.60993 19.3338 6.81825 18.0971 8.32808 18.0734L11.6918 18.0207C11.6922 18.0207 11.6926 18.0207 11.693 18.0207C12.1225 18.0173 12.4899 17.9295 12.7525 17.7156C13.0255 17.4931 13.1431 17.1695 13.1404 16.7924C13.1404 16.7921 13.1404 16.7918 13.1404 16.7915L13.1407 15.2915L13.1407 15.2915L13.1407 15.2896C13.1379 14.915 13.0209 14.5938 12.7469 14.3759C12.4839 14.1669 12.1178 14.0873 11.6896 14.0904C11.6893 14.0904 11.689 14.0904 11.6887 14.0904L8.30044 14.091C6.78954 14.0912 5.56141 12.8725 5.55006 11.3616L5.52321 7.78644C5.5118 6.2677 6.73374 5.02727 8.25248 5.01586L12.8802 4.98111ZM24.6209 32.2198L26.2024 32.2079L27.701 32.1966C28.4836 32.1907 29.0289 31.6304 29.3753 30.7114L29.3756 30.7105L39.8784 2.50996C39.8785 2.50981 39.8785 2.50967 39.8786 2.50952C40.0617 2.02585 40.1346 1.58872 39.993 1.25722C39.8343 0.885669 39.4634 0.752635 39.038 0.755829L36.7939 0.772683C36.3609 0.775935 35.9803 0.875134 35.6677 1.08661C35.354 1.29879 35.129 1.61035 34.985 2.0027L34.9847 2.00359L27.979 21.3141L27.9784 21.3156C27.6754 22.1679 27.2944 23.3141 26.8354 24.7532L26.8349 24.7547C26.5309 25.7295 26.2932 26.5733 26.1229 27.2849C25.9385 26.5755 25.6815 25.7351 25.3528 24.765C24.8871 23.3333 24.4961 22.1925 24.1801 21.3441L24.1795 21.3426L16.8845 2.13953L16.8842 2.13864C16.7343 1.74849 16.5047 1.44035 16.1878 1.2329C15.8721 1.02615 15.49 0.932676 15.057 0.935928L13.8661 0.944872L12.8129 0.952782L2.09817 1.03325C1.68808 1.03633 1.33673 1.15012 1.09285 1.41645C0.852154 1.67932 0.755675 2.04812 0.758894 2.47676L0.972834 30.9639C0.976053 31.3925 1.07806 31.7599 1.32268 32.0191C1.57053 32.2817 1.92355 32.3902 2.33364 32.3871L24.6209 32.2198Z" fill="#133B7A" stroke="#133B7A" stroke-width="0.5"/>
</svg>
