<svg width="32" height="32" viewBox="0 0 32 32" fill="none" xmlns="http://www.w3.org/2000/svg">
<g clip-path="url(#clip0_1013_110)">
<path d="M16.004 0H15.996C7.17402 0 2.09939e-05 7.176 2.09939e-05 16C-0.00545721 19.37 1.06132 22.6544 3.04602 25.378L1.05202 31.322L7.20202 29.356C9.81076 31.0867 12.8734 32.0067 16.004 32C24.826 32 32 24.822 32 16C32 7.178 24.826 0 16.004 0ZM25.314 22.594C24.928 23.684 23.396 24.588 22.174 24.852C21.338 25.03 20.246 25.172 16.57 23.648C11.868 21.7 8.84002 16.922 8.60402 16.612C8.37802 16.302 6.70402 14.082 6.70402 11.786C6.70402 9.49 7.87002 8.372 8.34002 7.892C8.72602 7.498 9.36402 7.318 9.97602 7.318C10.174 7.318 10.352 7.328 10.512 7.336C10.982 7.356 11.218 7.384 11.528 8.126C11.914 9.056 12.854 11.352 12.966 11.588C13.08 11.824 13.194 12.144 13.034 12.454C12.884 12.774 12.752 12.916 12.516 13.188C12.28 13.46 12.056 13.668 11.82 13.96C11.604 14.214 11.36 14.486 11.632 14.956C11.904 15.416 12.844 16.95 14.228 18.182C16.014 19.772 17.462 20.28 17.98 20.496C18.366 20.656 18.826 20.618 19.108 20.318C19.466 19.932 19.908 19.292 20.358 18.662C20.678 18.21 21.082 18.154 21.506 18.314C21.938 18.464 24.224 19.594 24.694 19.828C25.164 20.064 25.474 20.176 25.588 20.374C25.7 20.572 25.7 21.502 25.314 22.594Z" fill="#415991"/>
</g>
<defs>
<clipPath id="clip0_1013_110">
<rect width="32" height="32" fill="white"/>
</clipPath>
</defs>
</svg>
